<svg data-v-0dd9719b="" version="1.0" xmlns="http://www.w3.org/2000/svg" xmlns:xlink="http://www.w3.org/1999/xlink" width="100%" height="100%" viewBox="0 0 340.000000 250.000000" preserveAspectRatio="xMidYMid meet" color-interpolation-filters="sRGB" style="margin: auto;"> <rect data-v-0dd9719b="" x="0" y="0" width="100%" height="100%" fill="#fff" fill-opacity="1" class="background"></rect> <rect data-v-0dd9719b="" x="0" y="0" width="100%" height="100%" fill="url(#watermark)" fill-opacity="1" class="watermarklayer"></rect> <g data-v-0dd9719b="" fill="#ec1c24" class="icon-text-wrapper icon-svg-group iconsvg" transform="translate(54.12999725341797,95)"><g class="iconsvg-imagesvg" transform="translate(0,0)"><g><rect fill="#ec1c24" fill-opacity="0" stroke-width="2" x="0" y="0" width="60" height="60" class="image-rect"></rect> <svg x="0" y="0" width="60" height="60" filtersec="colorsb204483460" class="image-svg-svg primary" style="overflow: visible;"><svg data-name="图层 1" xmlns="http://www.w3.org/2000/svg" viewBox="0 0 484.6800537109375 484.6800231933594"><defs><linearGradient id="af6ee0f13-0737-42f7-b0da-b5119cfbcf91" x1="489.59" y1="369.42" x2="390.07" y2="254.31" gradientUnits="userSpaceOnUse"><stop offset="0" stop-color="#fff"></stop><stop offset=".49" stop-color="#ec1c24"></stop><stop offset="1" stop-color="#870f0d"></stop></linearGradient><linearGradient id="b0555e5da-48a9-4e45-aa07-25e1a8bf59e2" x1="544.03" y1="137.35" x2="295.86" y2="245.25" gradientUnits="userSpaceOnUse"><stop offset="0" stop-color="#fff"></stop><stop offset=".49" stop-color="#ec1c24"></stop><stop offset="1" stop-color="#870f0d"></stop></linearGradient><linearGradient id="c99cdff89-b5aa-4f8e-94c3-e75462c35696" x1="477.97" y1="-14.64" x2="229.77" y2="93.27" gradientUnits="userSpaceOnUse"><stop offset="0" stop-color="#feebcd"></stop><stop offset=".47" stop-color="#fbb03c"></stop><stop offset="1" stop-color="#ec2729"></stop></linearGradient><linearGradient id="d1ef2fdb5-3784-46fb-9d16-9f1291923590" x1="235.64" y1="101.12" x2="110.95" y2="-13.98" gradientUnits="userSpaceOnUse"><stop offset="0" stop-color="#feebcd"></stop><stop offset=".47" stop-color="#fbb03c"></stop><stop offset="1" stop-color="#ec2729"></stop></linearGradient><linearGradient id="e31be28e5-d340-425c-9cb3-c638b09c1396" x1="164.44" y1="213.97" x2="-18.98" y2="354.23" gradientUnits="userSpaceOnUse"><stop offset="0" stop-color="#fff"></stop><stop offset=".49" stop-color="#ec1c24"></stop><stop offset="1" stop-color="#870f0d"></stop></linearGradient><linearGradient id="f8506e3c2-bbfe-4a6f-95c2-c65867839129" x1="109.74" y1="237.51" x2="-14.96" y2="122.4" gradientUnits="userSpaceOnUse"><stop offset="0" stop-color="#fff"></stop><stop offset=".49" stop-color="#ec1c24"></stop><stop offset="1" stop-color="#870f0d"></stop></linearGradient><linearGradient id="gccad1705-98a2-4ecd-8345-5188d39d18ca" x1="275.09" y1="358.64" x2="91.62" y2="498.95" gradientUnits="userSpaceOnUse"><stop offset="0" stop-color="#feebcd"></stop><stop offset=".47" stop-color="#fbb03c"></stop><stop offset="1" stop-color="#ec2729"></stop></linearGradient><linearGradient id="h7dc2c1b7-b55a-453e-bfd2-115a0e617622" x1="349.95" y1="490.13" x2="250.45" y2="375.03" gradientUnits="userSpaceOnUse"><stop offset="0" stop-color="#feebcd"></stop><stop offset=".47" stop-color="#fbb03c"></stop><stop offset="1" stop-color="#ec2729"></stop></linearGradient><linearGradient id="ic1885cc6-ef0c-48f5-acd0-bc0a548534f9" x1="225.43" y1="192.91" x2="85.17" y2="293.61" gradientUnits="userSpaceOnUse"><stop offset="0" stop-color="#fff"></stop><stop offset=".49" stop-color="#ec1c24"></stop><stop offset="1" stop-color="#870f0d"></stop></linearGradient><linearGradient id="j74cc4289-c142-48a2-88be-43705dc1eb29" x1="164.44" y1="276.36" x2="79.32" y2="172.06" gradientUnits="userSpaceOnUse"><stop offset="0" stop-color="#fff"></stop><stop offset=".49" stop-color="#ec1c24"></stop><stop offset="1" stop-color="#870f0d"></stop></linearGradient><linearGradient id="k9317d491-407f-4593-938f-6bbb496a2b3e" x1="430.32" y1="156.79" x2="266.06" y2="317.45" gradientUnits="userSpaceOnUse"><stop offset="0" stop-color="#fff"></stop><stop offset=".49" stop-color="#ec1c24"></stop><stop offset="1" stop-color="#870f0d"></stop></linearGradient><linearGradient id="lded5001b-1891-4abb-a17b-bc7da2a35492" x1="424.71" y1="356.8" x2="319.19" y2="190.12" gradientUnits="userSpaceOnUse"><stop offset="0" stop-color="#fff"></stop><stop offset=".49" stop-color="#ec1c24"></stop><stop offset="1" stop-color="#870f0d"></stop></linearGradient><linearGradient id="m09182d89-6e4d-4404-8a91-8a7fe8cc9d73" x1="273.14" y1="187.65" x2="188.02" y2="83.35" gradientUnits="userSpaceOnUse"><stop offset="0" stop-color="#feebcd"></stop><stop offset=".47" stop-color="#fbb03c"></stop><stop offset="1" stop-color="#ec2729"></stop></linearGradient><linearGradient id="nb18047e1-6ebc-490e-900c-ec73b44f070b" x1="330.23" y1="54.45" x2="165.95" y2="215.12" gradientUnits="userSpaceOnUse"><stop offset="0" stop-color="#feebcd"></stop><stop offset=".47" stop-color="#fbb03c"></stop><stop offset="1" stop-color="#ec2729"></stop></linearGradient><linearGradient id="o9f5635fa-74b4-4355-9246-2aae056b8077" x1="310.86" y1="428.85" x2="205.36" y2="262.21" gradientUnits="userSpaceOnUse"><stop offset="0" stop-color="#feebcd"></stop><stop offset=".47" stop-color="#fbb03c"></stop><stop offset="1" stop-color="#ec2729"></stop></linearGradient><linearGradient id="pbb0e4c18-70fc-4404-bb99-e04dc5542978" x1="305.75" y1="304.75" x2="165.47" y2="405.46" gradientUnits="userSpaceOnUse"><stop offset="0" stop-color="#feebcd"></stop><stop offset=".47" stop-color="#fbb03c"></stop><stop offset="1" stop-color="#ec2729"></stop></linearGradient></defs><title>11</title><path fill="url(#af6ee0f13-0737-42f7-b0da-b5119cfbcf91)" d="M343.77 322.16l30.54 30.54 110.37-110.37h-61.1l-79.81 79.83z"></path><path fill="url(#b0555e5da-48a9-4e45-aa07-25e1a8bf59e2)" d="M343.76 162.51l79.82 79.82h61.1L374.31 131.96l-30.55 30.55z"></path><path fill="url(#c99cdff89-b5aa-4f8e-94c3-e75462c35696)" d="M322.16 140.91l30.54-30.55L242.34 0v61.1l79.82 79.81z"></path><path fill="url(#d1ef2fdb5-3784-46fb-9d16-9f1291923590)" d="M242.34 0L131.96 110.37l30.55 30.54 79.83-79.81V0z"></path><path fill="url(#e31be28e5-d340-425c-9cb3-c638b09c1396)" d="M0 242.33L110.37 352.7l30.54-30.55-79.81-79.82H0z"></path><path fill="url(#f8506e3c2-bbfe-4a6f-95c2-c65867839129)" d="M140.91 162.51l-30.54-30.55L0 242.33h61.1l79.81-79.82z"></path><path fill="url(#gccad1705-98a2-4ecd-8345-5188d39d18ca)" d="M162.51 343.75l-30.55 30.55 110.38 110.38v-61.1l-79.83-79.83z"></path><path fill="url(#h7dc2c1b7-b55a-453e-bfd2-115a0e617622)" d="M242.34 484.68L352.72 374.3l-30.55-30.55-79.83 79.83v61.1z"></path><path fill="url(#ic1885cc6-ef0c-48f5-acd0-bc0a548534f9)" d="M140.91 322.15l33.6-33.6-46.22-46.22H61.1l79.81 79.82z"></path><path fill="url(#j74cc4289-c142-48a2-88be-43705dc1eb29)" d="M140.91 162.51L61.1 242.33h67.19l46.22-46.22-33.6-33.6z"></path><path fill="url(#k9317d491-407f-4593-938f-6bbb496a2b3e)" d="M343.76 162.51l-33.6 33.6 46.23 46.22h67.19l-79.82-79.82z"></path><path fill="url(#lded5001b-1891-4abb-a17b-bc7da2a35492)" d="M356.39 242.33l-46.23 46.23 33.61 33.6 79.81-79.83h-67.19z"></path><path fill="url(#m09182d89-6e4d-4404-8a91-8a7fe8cc9d73)" d="M162.51 140.91l33.6 33.61 46.23-46.23V61.1l-79.83 79.81z"></path><path fill="url(#nb18047e1-6ebc-490e-900c-ec73b44f070b)" d="M322.16 140.91L242.34 61.1v67.19l46.22 46.23 33.6-33.61z"></path><path fill="url(#o9f5635fa-74b4-4355-9246-2aae056b8077)" d="M322.17 343.75l-33.6-33.59-46.23 46.22v67.2l79.83-79.83z"></path><path fill="url(#pbb0e4c18-70fc-4404-bb99-e04dc5542978)" d="M162.51 343.75l79.83 79.83v-67.2l-46.23-46.22-33.6 33.59z"></path></svg></svg> <!----></g></g> <g transform="translate(67,6.3287506103515625)"><g data-gra="path-name" fill-rule="" class="tp-name iconsvg-namesvg" transform="translate(0,0)"><g transform="scale(1)"><g><path d="M13.32-23.45L5.63-23.45 5-31.14 12.69-31.14 13.32-23.45ZM12.01-14.04L4.32-14.04 3.69-21.73 11.38-21.73 12.01-14.04ZM7.42 0.4L-0.27 0.4 4.09-12.33 11.79-12.33 7.42 0.4ZM15.25-31.05L41.67-31.05 41.04-26.55 39.51-26.55 36.05-2.02Q35.91-1.03 35.12-0.36 34.34 0.32 33.3 0.32L33.3 0.32 25.96 0.32 29.16-3.01 32.49-26.64 14.63-26.64 15.25-31.05ZM15.79-23.58L30.33-23.58 28.13-7.96 13.59-7.96 15.79-23.58ZM22.27-11.52L23.49-20.02 21.46-20.02 20.25-11.52 22.27-11.52ZM44.55-29.83L59.04-29.83 59.13-30.29 57.69-31.99 67.95-31.99 67.63-29.83 82.17-29.83 81.58-25.56 67-25.56 66.73-23.45 79.56-23.45 76.63-2.56Q76.41-1.26 75.42-0.43 74.43 0.4 73.13 0.4L73.13 0.4 65.92 0.4 69.97-3.78 72.13-19.17 51.61-19.17 48.82 0.4 41.98 0.4 45.36-23.45 58.14-23.45 58.45-25.56 43.96-25.56 44.55-29.83ZM59.49-17.46L60.16-14.89 62.37-14.89 63.77-17.46 70.16-17.46 68.76-14.89 70.25-14.89 69.7-11.07 63.9-11.07 63.67-9.31 69.48-9.31 68.94-5.49 63.13-5.49 62.46-0.77 56.07-0.77 56.74-5.49 50.94-5.49 51.48-9.31 57.28-9.31 57.51-11.07 51.7-11.07 52.24-14.89 53.73-14.89 53.05-17.46 59.49-17.46ZM111.28 0.4L105.3 0.4 108.22-3.78 109.26-11.47 102.51-11.47 104.31-24.43 109.66-24.43 110.88-26.23 116.69-26.23 115.51-24.43 122.89-24.43 121.09-11.47 114.97-11.47 113.76-2.56Q113.58-1.26 112.88-0.43 112.19 0.4 111.28 0.4L111.28 0.4ZM97.33-31.14L124.16-31.14 123.61-27.27 103.72-27.27 98.86 0.4 92.92 0.4 98.23-29.52 97.33-31.14ZM89.91 0.4L82.84 0.4 86.98-12.33 94.05-12.33 89.91 0.4ZM94.41-14.04L87.3-14.04 86.8-21.73 93.91-21.73 94.41-14.04ZM95.72-23.45L88.6-23.45 88.11-31.14 95.22-31.14 95.72-23.45ZM115.88-9.81L120.33-9.81 120.47-0.4 116.01-0.4 115.88-9.81ZM103.14-9.81L107.5-9.81 104.67-0.36 100.26-0.36 103.14-9.81ZM107.64-14.98L116.95-14.98 117.18-16.56 107.86-16.56 107.64-14.98ZM108.5-20.97L108.27-19.39 117.58-19.39 117.81-20.97 108.5-20.97ZM140.4-13.72L162.5-13.72 160.6-0.4 138.51-0.4 140.4-13.72ZM152.77-23.45L153.49-22.05 157.09-25.52 151.11-25.52 150.25-24.3 142.38-24.3 146.74-30.55 145.53-31.95 155.61-31.95 153.76-29.34 164.47-29.34 163.62-23.31 154.75-14.58 140.49-14.58 141.12-18.86 150.16-18.86 151.24-19.89 146.34-19.89 144.36-23.45 152.77-23.45ZM125.95-15.34L128.88-15.34 129.19-17.68 126.94-17.68 127.53-22 139.86-22 139.27-17.68 136.53-17.68 136.21-15.34 139.77-15.34 139.14-10.84 135.58-10.84 134.82-5.26 138.06-5.8 137.47-1.57 126.72 0.32 128.25-10.84 125.32-10.84 125.95-15.34ZM129.28-31.95L137.34-31.95 135.94-28.84 141.75-28.84 141.12-24.48 134.05-24.48 133.33-22.81 126.99-22.81 130.45-30.6 129.28-31.95ZM154.71-9.86L147.01-9.86 146.25-4.27 153.94-4.27 154.71-9.86Z" transform="translate(0.27000001072883606, 31.989999771118164)"></path></g> <!----> <!----> <!----> <!----> <!----> <!----> <!----></g></g> <g data-gra="path-slogan" fill-rule="" class="tp-slogan iconsvg-slogansvg" fill="#ec1c24" transform="translate(5,38.38999938964844)"><rect x="0" height="1" y="3.9750003814697266" width="20.485000610351562"></rect> <rect height="1" y="3.9750003814697266" width="20.485000610351562" x="134.2550048828125"></rect> <g transform="translate(23.485000610351562,0)"><g transform="scale(1)"><path d="M2.06-5.06L6.56-5.06L6.56-8.58L7.73-8.58L7.73 0L6.56 0L6.56-3.98L2.06-3.98L2.06 0L0.89 0L0.89-8.58L2.06-8.58L2.06-5.06ZM10.83-1.03L15.98-1.03L15.98 0L9.66 0L9.66-8.58L15.89-8.58L15.89-7.59L10.83-7.59L10.83-4.92L15.52-4.92L15.52-3.89L10.83-3.89L10.83-1.03ZM18.89-8.58L23.20-1.64L23.20-8.58L24.33-8.58L24.33 0L23.02 0L18.66-6.94L18.61-6.94L18.61 0L17.48 0L17.48-8.58L18.89-8.58ZM31.78 0L30.94-2.48L27.47-2.48L26.58 0L25.41 0L28.64-8.58L29.95-8.58L33.05 0L31.78 0ZM29.20-7.31L27.84-3.52L30.52-3.52L29.25-7.31L29.20-7.31ZM35.48-8.58L39.80-1.64L39.80-8.58L40.92-8.58L40.92 0L39.61 0L35.25-6.94L35.20-6.94L35.20 0L34.08 0L34.08-8.58L35.48-8.58ZM52.97-8.58L49.73-3.47L49.73 0L48.56 0L48.56-3.47L45.33-8.58L46.69-8.58L49.13-4.45L51.61-8.58L52.97-8.58ZM59.67-3.19L59.67-8.58L60.84-8.58L60.84-3.05Q60.70 0.05 57.33 0.14L57.33 0.14Q54.19 0.05 54.05-2.86L54.05-2.86L54.05-8.58L55.22-8.58L55.22-3.19Q55.27-0.84 57.38-0.80L57.38-0.80Q59.67-0.84 59.67-3.19L59.67-3.19ZM68.30 0L67.45-2.48L63.98-2.48L63.09 0L61.92 0L65.16-8.58L66.47-8.58L69.56 0L68.30 0ZM65.72-7.31L64.36-3.52L67.03-3.52L65.77-7.31L65.72-7.31ZM72-8.58L76.31-1.64L76.31-8.58L77.44-8.58L77.44 0L76.13 0L71.77-6.94L71.72-6.94L71.72 0L70.59 0L70.59-8.58L72-8.58ZM87.47-8.58L87.47 0L86.34 0L86.34-5.06Q86.34-5.77 86.34-7.22L86.34-7.22L83.91 0L82.73 0L80.34-7.22L80.30-7.22Q80.30-6.70 80.34-5.67L80.34-5.67Q80.34-5.16 80.34-5.06L80.34-5.06L80.34 0L79.17 0L79.17-8.58L80.86-8.58L83.34-1.31L85.78-8.58L87.47-8.58ZM89.34-8.58L90.52-8.58L90.52 0L89.34 0L89.34-8.58ZM93.89-8.58L98.20-1.64L98.20-8.58L99.33-8.58L99.33 0L98.02 0L93.66-6.94L93.61-6.94L93.61 0L92.48 0L92.48-8.58L93.89-8.58ZM107.53-3.61L104.91-3.61L104.91-4.59L108.66-4.59L108.66 0L107.91 0L107.63-1.08Q106.64 0.09 104.81 0.14L104.81 0.14Q103.08 0.14 102.14-0.75L102.14-0.75Q100.73-2.06 100.78-4.36L100.78-4.36Q101.11-8.63 104.86-8.81L104.86-8.81Q108.05-8.63 108.52-6L108.52-6L107.39-6Q106.92-7.78 104.81-7.83L104.81-7.83Q102.14-7.64 102-4.31L102-4.31Q102-0.75 104.86-0.75L104.86-0.75Q105.89-0.75 106.64-1.31L106.64-1.31Q107.58-2.06 107.53-3.61L107.53-3.61Z" transform="translate(-0.890625, 8.8125)"></path></g></g></g></g></g><defs v-gra="od"></defs></svg>